# xmcd
#
# Track frame offsets: 
#        150
#        13339
#        35732
#        49348
#        61390
#        87418
#        132097
#        145696
#        147723
#        154184
#        160418
#        167084
#        178379
#        187714
#
# Disc length: 2693 seconds
#
# Revision: 0
# Processed by: cddbd v1.4PL0 Copyright (c) Steve Scherf et al.
# Submitted via: ExactAudioCopy v0.90b4
#
DISCID=ce0a830e
DTITLE=Royal Opera House, Rome - Tosca [CD2]
DYEAR=1938
DGENRE=Opera
TTITLE0=Floria!  Amore!  Sei tu?
TTITLE1=La p[overa mia cena fu interrotta
TTITLE2=Vissi d'arte, vissi d'amore
TTITLE3=Vedi, le man giunte io stendo a te!
TTITLE4=Io tenni la promessa... Non ancora
TTITLE5=Mario Cavaradossi?  A voi.
TTITLE6=E lucevan la stelle... ed olezzava la terra
TTITLE7=Franchigia a Floria Tosca
TTITLE8=Il tuo sangue o il mio amore volea
TTITLE9=O dolci mani mansuete e pure
TTITLE10=Stnti... L'ora e vicina - io gia racolsi
TTITLE11=Amaro sol per te mera il morire
TTITLE12=Parlami ancor come dianzi parlavi
TTITLE13=Com'e lunga l'attesa!  Perche indugiano ancor?
EXTD=
EXTT0=
EXTT1=
EXTT2=
EXTT3=
EXTT4=
EXTT5=
EXTT6=
EXTT7=
EXTT8=
EXTT9=
EXTT10=
EXTT11=
EXTT12=
EXTT13=
PLAYORDER=
